<svg width="30" height="31" fill="none" xmlns="http://www.w3.org/2000/svg">
    <path clip-rule="evenodd" d="M3.75 8.554c0-3.282.035-4.375 4.375-4.375S12.5 5.272 12.5 8.554c0 3.281.014 4.375-4.375 4.375S3.75 11.835 3.75 8.554ZM17.5 8.554c0-3.282.035-4.375 4.375-4.375s4.375 1.093 4.375 4.375c0 3.281.014 4.375-4.375 4.375S17.5 11.835 17.5 8.554ZM3.75 22.304c0-3.282.035-4.375 4.375-4.375s4.375 1.093 4.375 4.375c0 3.281.014 4.375-4.375 4.375S3.75 25.585 3.75 22.304ZM17.5 22.304c0-3.282.035-4.375 4.375-4.375s4.375 1.093 4.375 4.375c0 3.281.014 4.375-4.375 4.375S17.5 25.585 17.5 22.304Z" stroke="#8C84E2" stroke-width="2" stroke-linecap="round" stroke-linejoin="round"/>
</svg>
