<svg width="20" height="20" fill="none" xmlns="http://www.w3.org/2000/svg">
    <g clip-path="url(#a)" fill="#3A3A55">
        <path d="M13.524 11.123 10.002 7.6l-3.523 3.523.884.884 2.014-2.014v9.382h1.25V9.993l2.015 2.014.883-.884Z"/>
        <path d="M15.625 6.307V6.25A5.631 5.631 0 0 0 10 .625 5.631 5.631 0 0 0 4.375 6.25v.097c-.926.175-1.78.62-2.453 1.278a4.273 4.273 0 0 0-1.297 3.063c0 1.216.5 2.374 1.407 3.26.886.867 2.083 1.364 3.283 1.364h2.497v-1.25H5.316c-1.832 0-3.44-1.576-3.44-3.374 0-1.65 1.392-3.043 3.17-3.17l.58-.041V6.25a4.375 4.375 0 0 1 8.75 0v1.252l.617.007c1.816.023 3.133 1.36 3.133 3.18 0 1.891-1.393 3.373-3.17 3.373h-2.768v1.25h2.767a4.287 4.287 0 0 0 3.17-1.384 4.731 4.731 0 0 0 1.251-3.24c0-2.282-1.574-4.071-3.75-4.381Z"/>
    </g>
    <defs>
        <clipPath id="a">
            <path fill="#fff" d="M0 0h20v20H0z"/>
        </clipPath>
    </defs>
</svg>
