<svg width="30" height="30" fill="none" xmlns="http://www.w3.org/2000/svg">
    <path fill="#F6F6F6" d="M0 0h30v30H0z"/>
    <path d="M24.156 11.835s-.679 8.419-1.072 11.965c-.188 1.694-1.234 2.686-2.948 2.718a250.4 250.4 0 0 1-9.786-.006c-1.649-.034-2.678-1.04-2.861-2.703-.397-3.578-1.072-11.974-1.072-11.974M25.885 7.8H4.688M21.8 7.8a2.06 2.06 0 0 1-2.018-1.655l-.304-1.52a1.6 1.6 0 0 0-1.546-1.187h-5.291a1.6 1.6 0 0 0-1.546 1.187l-.304 1.52A2.06 2.06 0 0 1 8.772 7.8" stroke="#3A3A55" stroke-width="1.5" stroke-linecap="round" stroke-linejoin="round"/>
</svg>
