<svg width="26" height="28" fill="none" xmlns="http://www.w3.org/2000/svg">
    <path d="M9.447 25.393v-3.834c0-.975.794-1.767 1.78-1.773h3.607c.99 0 1.792.794 1.792 1.773v3.846c0 .828.667 1.504 1.503 1.524h2.405c2.397 0 4.341-1.924 4.341-4.298v0-10.905a3.05 3.05 0 0 0-1.203-2.381l-8.225-6.56a3.975 3.975 0 0 0-4.93 0l-8.19 6.572a3.026 3.026 0 0 0-1.202 2.38v10.894c0 2.374 1.944 4.298 4.341 4.298h2.405c.857 0 1.551-.688 1.551-1.536v0" stroke="#8C84E2" stroke-width="2" stroke-linecap="round" stroke-linejoin="round"/>
</svg>
