<svg width="26" height="28" fill="none" xmlns="http://www.w3.org/2000/svg">
    <path d="M9.447 24.964v-3.833c0-.975.794-1.768 1.78-1.774h3.607c.99 0 1.792.794 1.792 1.774v3.845c0 .828.667 1.505 1.503 1.524h2.405c2.397 0 4.341-1.924 4.341-4.298v0-10.905a3.05 3.05 0 0 0-1.203-2.38l-8.225-6.56a3.975 3.975 0 0 0-4.93 0l-8.19 6.571a3.026 3.026 0 0 0-1.202 2.381v10.893c0 2.374 1.944 4.298 4.341 4.298h2.405c.857 0 1.551-.688 1.551-1.536v0" stroke="#3A3A55" stroke-width="1.5" stroke-linecap="round" stroke-linejoin="round"/>
</svg>
