<svg width="46" height="46" viewBox="0 0 46 46" fill="none" xmlns="http://www.w3.org/2000/svg">
<path fill-rule="evenodd" clip-rule="evenodd" d="M3.83325 23.011C3.83325 12.4319 12.4361 3.83325 22.9999 3.83325C33.5638 3.83325 42.1666 12.4319 42.1666 23.011C42.1666 33.5679 33.5638 42.1666 22.9999 42.1666C12.4361 42.1666 3.83325 33.5679 3.83325 23.011ZM30.0301 24.9509C30.2336 24.7475 30.4926 24.4332 30.5481 24.3592C30.8441 23.9709 30.9921 23.4901 30.9921 23.0112C30.9921 22.473 30.8256 21.9738 30.5111 21.5669C30.4853 21.5412 30.4349 21.4862 30.3691 21.4146C30.246 21.2807 30.0694 21.0884 29.9006 20.9197C28.3835 19.2925 24.4244 16.6297 22.3523 15.816C22.0378 15.6884 21.2423 15.4092 20.8168 15.3907C20.4098 15.3907 20.0213 15.4832 19.6512 15.6681C19.1887 15.927 18.8187 16.3338 18.6152 16.8146C18.4857 17.1474 18.2822 18.146 18.2822 18.1645C18.0787 19.2555 17.9677 21.0307 17.9677 22.9908C17.9677 24.8603 18.0787 26.5597 18.2452 27.6692C18.2498 27.6738 18.2657 27.7531 18.2904 27.8764C18.3656 28.2512 18.5222 29.0319 18.6892 29.352C19.0962 30.1286 19.8917 30.6094 20.7428 30.6094H20.8168C21.3718 30.5909 22.5373 30.1101 22.5373 30.0916C24.4984 29.278 28.365 26.7446 29.9191 25.0619L30.0301 24.9509Z" fill="white" fill-opacity="0.8"/>
</svg>
