<svg width="81" height="81" fill="none" xmlns="http://www.w3.org/2000/svg">
    <path fill-rule="evenodd" clip-rule="evenodd" d="M0 40.44C0 18.132 18.14 0 40.417 0c22.276 0 40.416 18.132 40.416 40.44 0 22.261-18.14 40.393-40.416 40.393C18.14 80.833 0 62.701 0 40.44Zm55.241 4.09c.43-.428.976-1.091 1.093-1.247a4.697 4.697 0 0 0 .936-2.843c0-1.134-.351-2.187-1.014-3.045-.055-.054-.161-.17-.3-.321a34.95 34.95 0 0 0-.988-1.044C51.77 32.6 43.421 26.984 39.051 25.268c-.663-.269-2.34-.858-3.238-.897-.858 0-1.677.195-2.457.585a5.057 5.057 0 0 0-2.185 2.418c-.273.702-.702 2.807-.702 2.846-.43 2.3-.664 6.044-.664 10.178 0 3.942.235 7.525.586 9.865.01.01.043.177.095.437.159.79.489 2.436.841 3.111.858 1.638 2.536 2.652 4.33 2.652h.156c1.17-.04 3.628-1.053 3.628-1.092 4.136-1.716 12.29-7.058 15.566-10.606l.234-.234Z" fill="#F1B488"/>
</svg>
