<svg width="39" height="39" viewBox="0 0 39 39" fill="none" xmlns="http://www.w3.org/2000/svg">
<path fill-rule="evenodd" clip-rule="evenodd" d="M0 19.1778C0 8.59865 8.6028 0 19.1667 0C29.7305 0 38.3333 8.59865 38.3333 19.1778C38.3333 29.7347 29.7305 38.3333 19.1667 38.3333C8.6028 38.3333 0 29.7347 0 19.1778ZM26.1968 21.1177C26.4004 20.9143 26.6594 20.5999 26.7149 20.5259C27.0109 20.1376 27.1589 19.6568 27.1589 19.1779C27.1589 18.6398 26.9924 18.1405 26.6779 17.7337C26.6521 17.7079 26.6016 17.653 26.5358 17.5814C26.4128 17.4475 26.2361 17.2552 26.0673 17.0865C24.5503 15.4592 20.5912 12.7964 18.5191 11.9828C18.2046 11.8552 17.409 11.576 16.9835 11.5575C16.5765 11.5575 16.188 11.6499 15.818 11.8348C15.3555 12.0937 14.9855 12.5005 14.782 12.9813C14.6524 13.3142 14.4489 14.3127 14.4489 14.3312C14.2454 15.4222 14.1344 17.1974 14.1344 19.1576C14.1344 21.0271 14.2454 22.7265 14.4119 23.836C14.4165 23.8405 14.4324 23.9199 14.4572 24.0432C14.5323 24.4179 14.6889 25.1987 14.856 25.5187C15.263 26.2954 16.0585 26.7761 16.9095 26.7761H16.9835C17.5385 26.7577 18.7041 26.2769 18.7041 26.2584C20.6652 25.4447 24.5318 22.9114 26.0858 21.2286L26.1968 21.1177Z" fill="#8C84E2"/>
</svg>
