<svg width="51" height="49" viewBox="0 0 51 49" fill="none" xmlns="http://www.w3.org/2000/svg">
<path fill-rule="evenodd" clip-rule="evenodd" d="M51 24.5C51 38.031 39.5833 49 25.5 49C11.4167 49 0 38.031 0 24.5C0 10.969 11.4167 0 25.5 0C39.5833 0 51 10.969 51 24.5ZM16.3202 17.7602C16.3202 16.0702 17.6902 14.7002 19.3801 14.7002C21.0701 14.7002 22.4402 16.0702 22.4402 17.7602V31.2402C22.4402 32.9302 21.0701 34.3002 19.3801 34.3002C17.6902 34.3002 16.3202 32.9302 16.3202 31.2402V17.7602ZM31.6201 14.7002C29.9301 14.7002 28.5601 16.0702 28.5601 17.7602V31.2402C28.5601 32.9302 29.9301 34.3002 31.6201 34.3002C33.3101 34.3002 34.6801 32.9302 34.6801 31.2402V17.7602C34.6801 16.0702 33.3101 14.7002 31.6201 14.7002Z" fill="#8C84E2"/>
</svg>
