<svg width="80" height="161" fill="none" xmlns="http://www.w3.org/2000/svg">
    <path fill-rule="evenodd" clip-rule="evenodd" d="M42 79.95C63.162 78.91 80 61.42 80 40 80 17.909 62.091 0 40 0S0 17.909 0 40c0 21.42 16.838 38.909 38 39.95v34.693h-1c-11.046 0-20 8.954-20 20v6c0 11.046 8.954 20 20 20h6c11.046 0 20-8.954 20-20v-6c0-11.046-8.954-20-20-20h-1V79.951ZM30.4 24a4.8 4.8 0 0 0-4.8 4.8v22.4a4.8 4.8 0 1 0 9.6 0V28.8a4.8 4.8 0 0 0-4.8-4.8Zm14.4 4.8a4.8 4.8 0 1 1 9.6 0v22.4a4.8 4.8 0 1 1-9.6 0V28.8Z" fill="#F1B488"/>
</svg>
