<svg xmlns="http://www.w3.org/2000/svg" viewBox="0 0 80 59.1" style="enable-background:new 0 0 80 59.1" xml:space="preserve">
    <path d="M42-22c21.2-1 38-18.5 38-40 0-22.1-17.9-40-40-40S0-84 0-61.9C0-40.5 16.8-23 38-22v34.6h-1c-11 0-20 9-20 20v6c0 11 9 20 20 20h6c11 0 20-9 20-20v-6c0-11-9-20-20-20h-1V-22zM30.4-77.9c-2.7 0-4.8 2.1-4.8 4.8v22.4c0 2.7 2.1 4.8 4.8 4.8s4.8-2.1 4.8-4.8v-22.4c0-2.7-2.1-4.8-4.8-4.8zm14.4 4.8c0-2.7 2.1-4.8 4.8-4.8 2.7 0 4.8 2.1 4.8 4.8v22.4c0 2.7-2.1 4.8-4.8 4.8-2.7 0-4.8-2.1-4.8-4.8v-22.4z" style="fill-rule:evenodd;clip-rule:evenodd;fill:#f1b488"/>
</svg>
