<svg width="80" height="80" fill="none" xmlns="http://www.w3.org/2000/svg">
    <path clip-rule="evenodd" d="M46.334 23.44c2.104.838 2.747 3.754 3.608 4.692.86.937 2.091 1.256 2.773 1.256a6.556 6.556 0 0 1 6.556 6.554v12.073a8.793 8.793 0 0 1-8.792 8.792H29.521a8.792 8.792 0 0 1-8.792-8.792V35.942a6.556 6.556 0 0 1 6.557-6.554c.679 0 1.91-.319 2.772-1.256.861-.938 1.503-3.854 3.607-4.692 2.106-.837 10.564-.837 12.669 0Z" stroke="#fff" stroke-opacity=".8" stroke-width="1.5" stroke-linecap="round" stroke-linejoin="round"/>
    <path d="M51.449 34.792h.019" stroke="#fff" stroke-opacity=".8" stroke-width="2" stroke-linecap="round" stroke-linejoin="round"/>
    <path clip-rule="evenodd" d="M46.623 42.35A6.622 6.622 0 0 0 40 35.727a6.622 6.622 0 0 0-6.623 6.623A6.622 6.622 0 0 0 40 48.973a6.622 6.622 0 0 0 6.623-6.623Z" stroke="#fff" stroke-opacity=".8" stroke-width="1.5" stroke-linecap="round" stroke-linejoin="round"/>
    <circle cx="40" cy="40" r="39.25" stroke="#fff" stroke-opacity=".8" stroke-width="1.5"/>
</svg>
